<?xml version="1.0" standalone="no"?>
<!DOCTYPE svg PUBLIC "-//W3C//DTD SVG 20010904//EN"
 "http://www.w3.org/TR/2001/REC-SVG-20010904/DTD/svg10.dtd">
<svg version="1.0" xmlns="http://www.w3.org/2000/svg"
 width="256.000000pt" height="256.000000pt" viewBox="0 0 256.000000 256.000000"
 preserveAspectRatio="xMidYMid meet">

<g transform="translate(0.000000,256.000000) scale(0.100000,-0.100000)"
fill="#000000" stroke="none">
<path d="M1247 2379 c-20 -12 -425 -495 -524 -624 -134 -177 -241 -377 -285
-530 -30 -108 -30 -274 1 -390 124 -465 594 -743 1056 -625 338 86 590 368
641 716 18 123 9 225 -32 351 -49 150 -177 370 -316 541 -182 225 -462 553
-478 562 -23 13 -40 12 -63 -1z m151 -154 c454 -535 582 -719 664 -955 31 -90
33 -102 32 -235 0 -161 -14 -225 -74 -350 -104 -215 -309 -380 -540 -435 -115
-27 -284 -27 -397 0 -368 88 -623 409 -623 786 0 127 22 217 89 358 86 184
150 273 455 641 243 293 255 307 281 303 10 -2 61 -52 113 -113z"/>
<path d="M850 1220 l0 -380 80 0 80 0 0 160 0 160 155 0 155 0 0 -160 0 -160
80 0 80 0 0 380 0 380 -80 0 -80 0 0 -150 0 -150 -155 0 -155 0 0 150 0 150
-80 0 -80 0 0 -380z"/>
<path d="M1625 1064 c-48 -18 -59 -28 -52 -47 5 -13 11 -13 50 1 90 32 159
-17 143 -102 -8 -44 -65 -116 -150 -191 -36 -32 -66 -65 -66 -72 0 -10 32 -13
151 -13 150 0 150 0 147 23 -3 21 -8 22 -95 25 -59 2 -93 7 -93 14 0 6 29 37
64 70 77 70 122 150 111 198 -10 44 -51 88 -93 100 -48 13 -68 12 -117 -6z"/>
</g>
</svg>
